<svg width="1440" height="847" viewBox="0 0 1440 847" fill="none" xmlns="http://www.w3.org/2000/svg">
<path d="M1241.5 113.5C1159.99 70.9152 -16 0 -16 0V575.746C-16 575.746 102.227 696.619 156 718C209.773 739.381 1172.99 855.085 1214.5 846C1256.01 836.915 1441 603 1441 603V353.17C1441 353.17 1323.01 156.085 1241.5 113.5Z" fill="#F2F0FA"/>
<path opacity="0.1" d="M1100.8 275.735C1083.82 284.768 1070.27 292.718 1060.15 299.583C1050.03 306.449 1041.54 315.121 1034.68 325.6C1028.17 336.079 1024.92 348.726 1024.92 363.54C1030.34 371.49 1036.66 377.813 1043.89 382.511C1051.48 387.208 1060.69 390.46 1071.53 392.267C1109.47 399.133 1128.44 419.548 1128.44 453.514C1128.44 473.749 1121.4 490.552 1107.3 503.921C1093.21 517.291 1074.96 523.976 1052.56 523.976C1033.41 523.976 1016.43 519.278 1001.61 509.883C986.798 500.488 975.235 487.3 966.924 470.317C958.975 453.334 955 434.002 955 412.321C955 385.944 960.781 360.108 972.344 334.814C984.269 309.159 1001.43 287.298 1023.84 269.231C1046.24 251.164 1072.44 239.42 1102.43 234C1112.54 242.311 1119.05 252.428 1121.94 264.353L1100.8 275.735ZM1331.16 275.735C1314.17 284.768 1300.62 292.718 1290.5 299.583C1280.39 306.449 1271.9 315.121 1265.03 325.6C1258.53 336.079 1255.27 348.726 1255.27 363.54C1265.39 379.078 1280.93 388.654 1301.89 392.267C1339.47 399.133 1358.26 419.548 1358.26 453.514C1358.26 473.749 1351.21 490.552 1337.12 503.921C1323.39 517.291 1305.32 523.976 1282.92 523.976C1263.77 523.976 1246.78 519.278 1231.97 509.883C1217.15 500.488 1205.59 487.3 1197.28 470.317C1189.33 453.334 1185.35 434.002 1185.35 412.321C1185.35 385.944 1191.14 360.108 1202.7 334.814C1214.62 309.159 1231.79 287.298 1254.19 269.231C1276.59 251.164 1302.79 239.42 1332.78 234C1342.9 242.311 1349.4 252.428 1352.29 264.353L1331.16 275.735Z" fill="#0D4A31"/>
</svg>
