<svg width="48" height="48" viewBox="0 0 48 48" fill="none" xmlns="http://www.w3.org/2000/svg">
<circle cx="24" cy="24" r="24" fill="url(#paint0_linear_265_185)"/>
<path d="M31.5204 22.7602C31.5204 28.7959 23.7602 33.9694 23.7602 33.9694C23.7602 33.9694 16 28.7959 16 22.7602C16 20.7021 16.8176 18.7282 18.2729 17.2729C19.7282 15.8176 21.7021 15 23.7602 15C25.8183 15 27.7922 15.8176 29.2475 17.2729C30.7028 18.7282 31.5204 20.7021 31.5204 22.7602Z" stroke="white" stroke-width="1.5" stroke-linecap="round" stroke-linejoin="round"/>
<path d="M23.7602 25.3469C25.1888 25.3469 26.3469 24.1888 26.3469 22.7602C26.3469 21.3316 25.1888 20.1735 23.7602 20.1735C22.3316 20.1735 21.1735 21.3316 21.1735 22.7602C21.1735 24.1888 22.3316 25.3469 23.7602 25.3469Z" stroke="white" stroke-width="1.5" stroke-linecap="round" stroke-linejoin="round"/>
<defs>
<linearGradient id="paint0_linear_265_185" x1="10.5" y1="4.5" x2="46.7745" y2="37.63" gradientUnits="userSpaceOnUse">
<stop stop-color="#1F8058"/>
<stop offset="1" stop-color="#0D4A31"/>
</linearGradient>
</defs>
</svg>
